<svg id="Layer_1" enable-background="new 0 0 512 512" height="512" viewBox="0 0 512 512" width="512" xmlns="http://www.w3.org/2000/svg"><g><path d="m485.423 315.255c3.117-15.603 4.763-31.737 4.763-48.257 0-135.311-109.691-245.002-245.002-245.002-105.955 0-196.194 67.262-230.365 161.413z" fill="#50dd89"/><path d="m14.819 183.409 147.551 41.338c3.457-9.612.067-22.999-14.825-41.593-39.14-48.869-29.05-101.091-16.123-133.191-53.716 28.217-95.676 75.786-116.603 133.446z" fill="#38c674"/><path d="m116.204 475.321c18.211 11.299 38.013 20.271 58.989 26.518l45.33 8.925c8.111.811 16.336 1.236 24.661 1.236 47.33 0 91.517-13.435 128.98-36.679z" fill="#3c58a0"/><path d="m416.275 474.411v25.033c0 6.906 5.65 12.556 12.556 12.556h23.153c6.906 0 12.556-5.65 12.556-12.556v-25.033c-12.254 0-36.363 0-48.265 0z" fill="#e9efff"/><path d="m440.408 499.8c0-6.906 5.65-12.556 12.556-12.556h11.576v-12.833c-12.255 0-36.364 0-48.266 0v25.033c0 6.906 5.65 12.556 12.556 12.556h11.576v-12.2z" fill="#d3dcfb"/><path d="m19.895 350.896 47.314 84.459c15.382 16.252 32.962 30.402 52.27 41.966h322.485v-126.425c-33.225 0-291.553 0-422.069 0z" fill="#816ae2"/><path d="m31.681 371.935 35.528 63.419c15.382 16.252 32.962 30.402 52.27 41.966h144.315v-32.407h-10.254c-34.754 0-30.222-35.937-30.222-35.937l-100.53-58.081c-6.183 0-12.303 0-18.34 0-17.383 5.553-50.303 15.786-72.767 21.04z" fill="#7255ce"/><path d="m17.764 347.092 30.567 54.565h374.615c9.604 0 17.461-7.857 17.461-17.461v-37.104z" fill="#7255ce"/><path d="m433.863 183.154h-418.954c-9.526 26.157-14.727 54.392-14.727 83.844 0 22.026 2.927 43.365 8.381 63.669l9.202 16.426h425.554v-28.803c0-13.498 7.492-25.244 18.543-31.314v-75.824c-.001-15.398-12.6-27.998-27.999-27.998z" fill="#816ae2"/><path d="m147.544 183.154h-132.635c-9.526 26.157-14.727 54.392-14.727 83.844 0 22.026 2.927 43.365 8.381 63.669l9.202 16.426h138.019v-65.768c-44.126-44.127-8.24-98.171-8.24-98.171z" fill="#7255ce"/><path d="m478.411 281.201c17.873 1.119 32.37 15.742 33.351 33.623.705 12.832-5.381 24.264-14.982 31.085-5.199 3.693-8.107 9.829-8.107 16.206v97.378c0 9.846-7.981 17.827-17.827 17.827h-30.438v-160.486c0-20.48 17.243-36.933 38.003-35.633z" fill="#9181f2"/><path d="m354.117 299.701h-60.353c2.186 3.711 3.464 8.012 3.464 12.608l-1.221 42.726h55.867l-1.221-42.726c0-4.596 1.278-8.898 3.464-12.608z" fill="#2a428c"/><path d="m386.043 235.566c0-1.668 1.223-3.08 2.871-3.341 10.474-1.661 20.452-3.701 29.812-6.084 1.652-.421 3.124-1.198 4.367-2.22l1.951 1.141c1.686 14.422 7.413 39.901 8.091 48.755.571 7.455-2.193 14.771-7.546 19.99-4.713 4.596-11.036 7.169-17.62 7.169-2.815 0-13.434 0-21.927 0v-65.41z" fill="#fcad6d"/><path d="m429.535 251.887c-1.746-9.381-3.636-19.52-4.49-26.825l-1.951-1.14c-1.243 1.021-2.715 1.799-4.367 2.22-9.36 2.382-19.338 4.423-29.812 6.084-1.648.261-2.871 1.673-2.871 3.341v26.72c16.737-15.772 33.634-13.783 43.491-10.4z" fill="#fd995b"/><path d="m428.926 214.808c-.729-3.755-2.007-8.923-2.011-16.724-.007-14.903-3.615-48.73-35.954-51.373-3.058-.25-4.685-1.437-8.289-3.469-5.074-2.861-10.196-5.303-15.503-7.305.966 1.241 1.363 2.844 1.087 4.405-2.695 15.202-15.593 25.798-23.042 30.762-2.582 1.721-6.115 1.046-7.874-1.5-.079-.081-.296-.636-.941-.59-.313.025-.589.217-.722.501-.874 1.853-1.56 3.707-2.102 5.502l-1.827 10.944c-5.148 0-9.571 0-14.72 0l-1.827-10.944c-.542-1.795-1.228-3.649-2.102-5.502-.134-.284-.409-.475-.722-.501-.645-.046-.862.51-.941.59-1.759 2.546-5.292 3.221-7.874 1.5-7.449-4.963-20.347-15.56-23.042-30.762-.277-1.561.121-3.164 1.087-4.405-5.307 2.002-10.429 4.444-15.503 7.305-3.604 2.032-5.231 3.219-8.289 3.469-32.339 2.644-35.948 36.47-35.954 51.373-.004 7.801-1.282 12.969-2.011 16.724-1.121 5.777 2.538 11.39 8.242 12.842l32.683 73.325h127.225v-63.9c0-1.669 1.223-3.08 2.871-3.341 10.475-1.661 20.452-3.701 29.812-6.084 5.705-1.452 9.365-7.064 8.243-12.842z" fill="#73c3f9"/><path d="m273.211 193.315c0-25.333 25.81-24.689 25.81-24.689l.535-.394c-7.374-5.668-16.777-15.164-19.034-27.889-.277-1.561.121-3.164 1.087-4.405-5.307 2.002-10.429 4.444-15.503 7.305-3.604 2.032-5.231 3.219-8.289 3.468-32.339 2.644-35.948 36.47-35.954 51.374-.004 7.801-1.281 12.969-2.011 16.724-1.121 5.777 2.538 11.39 8.242 12.842l31.182 69.958 13.936-3.618c-.001-.001-.001-75.343-.001-100.676z" fill="#4fabf7"/><path d="m318.804 158.021c.241.154.388.419.393.709.006.273.138.528.358.689.785.576 2.37 1.868 4.165 4.052.351.426 1.004.427 1.355.001 1.799-2.187 3.379-3.477 4.161-4.051.22-.162.352-.417.357-.691.005-.29.152-.555.394-.71 1.189-1.239 25.574-13.015 21.958-28.578-2.871-4.798-3.702-11.602-3.875-16.628-2.391 2.785-4.901 5.115-7.299 6.977-4.672 3.628-10.438 5.599-16.375 5.599-5.938 0-11.703-1.971-16.375-5.599-2.398-1.862-4.908-4.192-7.299-6.977-.173 5.028-1.004 11.836-3.879 16.634-3.654 15.618 20.653 27.211 21.961 28.573z" fill="#fcad6d"/><path d="m300.72 112.815c-.173 5.028-1.004 11.835-3.878 16.634-2.958 12.649 12.42 22.656 19.07 26.728l.759-.56c9.496-9.496 7.724-30.226 7.724-30.226-5.938 0-11.703-1.971-16.375-5.599-2.399-1.862-4.908-4.192-7.3-6.977z" fill="#fd995b"/><path d="m330.189 159.73c-.29-.421-.365-.922-.257-1.382h-.689s-2.416 1.494-5.183 4.979c3.552 4.474 7.677 12.24 8.029 24.381.235-8.095 2.15-14.246 4.452-18.774z" fill="#1e9ef4"/><path d="m319.545 158.348h-.689c.108.46.034.961-.257 1.382l-6.353 9.204c2.461 4.835 4.482 11.515 4.482 20.448v12.025c0 2.069 1.677 3.746 3.746 3.746h8.566c2.069 0 3.746-1.677 3.746-3.746v-12.025c.001-22.879-13.241-31.034-13.241-31.034z" fill="#4fabf7"/><path d="m305.538 287.941c1.286-6.322 4.438-13.225 11.808-16.41 6.693-2.893 17.886-1.427 24.368 1.418 3.525 1.547 7.289 2.479 11.139 2.479l41.498-4.971 6.376 30.52h-84.533c-6.874-.001-12.026-6.3-10.656-13.036z" fill="#fcad6d"/><path d="m351.336 477.87c.885-3.945 1.272-7.984 1.153-12.025l-4.386-153.536c0-13.756 11.255-25.011 25.011-25.011s25.011 11.255 25.011 25.011l-4.294 150.447c-.159 5.367 3.416 10.129 8.614 11.474l12.329 4.294c6.919 2.409 11.555 8.933 11.555 16.26 0 9.509-7.708 17.217-17.217 17.217h-32.856c-16.705 0-29.102-15.487-25.445-31.787z" fill="#f9ba8f"/><path d="m426.329 494.783c0-7.326-4.636-13.85-11.555-16.259l-12.329-4.294c-5.198-1.345-8.773-6.108-8.614-11.474l.509-17.841c-22.776 22.777-42.449 0-42.449 0l.598 20.931c.12 4.041-.268 8.081-1.153 12.025l-.526 2.344c-3.657 16.3 8.74 31.787 25.445 31.787h32.856c9.51-.002 17.218-7.71 17.218-17.219z" fill="#fcad6d"/><path d="m296.544 477.87c-.885-3.945-1.272-7.984-1.153-12.025l4.386-153.536c0-13.756-11.255-25.011-25.011-25.011s-25.011 11.255-25.011 25.011l4.295 150.447c.159 5.367-3.416 10.129-8.614 11.474l-12.329 4.294c-6.919 2.409-11.555 8.933-11.555 16.26 0 9.509 7.708 17.217 17.217 17.217h32.856c16.705 0 29.102-15.487 25.445-31.787z" fill="#f9ba8f"/><path d="m296.544 477.87c-.885-3.945-1.272-7.984-1.153-12.025l.598-20.931c-25.805 21.349-42.449 0-42.449 0l.509 17.841c.159 5.367-3.416 10.129-8.614 11.474l-12.33 4.294c-6.919 2.409-11.555 8.933-11.555 16.259 0 9.509 7.708 17.217 17.217 17.217h32.856c16.705 0 29.102-15.487 25.445-31.787z" fill="#fcad6d"/><path d="m319.276 157.283-6.863-4.389c-15.874-10.745-16.158-19.813-14.159-25.084.745-1.964-1.178-3.865-3.114-3.048-6.88 2.906-11.48 7.799-13.75 10.682-1.136 1.444-1.596 3.309-1.275 5.118 2.745 15.486 15.776 26.23 23.395 31.307 2.994 1.995 7.03 1.231 9.073-1.73l7.185-10.409c.559-.808.335-1.918-.492-2.447z" fill="#9bd8f9"/><path d="m367.398 135.443c-2.269-2.883-6.869-7.776-13.749-10.682-1.935-.817-3.859 1.084-3.114 3.048 1.999 5.271 1.715 14.339-14.159 25.084l-6.863 4.389c-.827.529-1.051 1.639-.493 2.447l7.185 10.409c2.044 2.961 6.08 3.725 9.073 1.73 7.619-5.077 20.65-15.821 23.395-31.307.322-1.809-.138-3.674-1.275-5.118z" fill="#9bd8f9"/><path d="m215.871 420.788c10.349-12.344 14.9-31.386 14.9-42.426-2.785 11.214-9.082 25.852-23.258 37.69-6.044 5.047-10.357 11.861-12.402 19.465-1.886 7.013-4.214 15.228-6.036 20.237-2.919 8.028-1.201 30.549-.37 39.471.179 1.92 1.928 3.297 3.836 3.02 5.845-.848 17.248-1.048 19.514 9.666.136.642.064 1.264-.138 1.831 5.688.772 11.439 1.347 17.244 1.722 1.145-.726 1.818-2.103 1.511-3.553-2.265-10.715-13.668-10.514-19.513-9.666-1.909.277-3.658-1.1-3.836-3.02-.83-8.923-4.386-31.444-1.467-39.471 6.075-16.708 1.562-24.883 10.015-34.966z" fill="#d34e3c"/><path d="m67.9 387.27c-1.347-.12-2.531.899-2.609 2.249-.305 5.315-1.975 18.739-10.716 31.395 4.441 5.493 9.109 10.793 14 15.88 11.64-10.196 16.648-27.122 18.45-42.444-7.389-4.237-13.287-6.56-19.125-7.08z" fill="#d34e3c"/><path d="m297.724 262.434-30.782-13.339c-4.383-1.899-7.94-5.374-9.754-9.793-2.032-4.951-6.084-8.802-11.136-10.556-29.884-10.375-49.566-1.654-64.783 48.225-16.538 54.21-12.251 31.24-113.32 31.24-30.124 0-48.693 8.376-59.924 20.496 8.878 34.218 24.975 65.522 46.555 92.212 8.742-12.658 10.406-26.085 10.711-31.4.077-1.35 1.261-2.369 2.609-2.249 10.76.958 21.705 8.027 41.86 21.936 18.496 12.765 47.409 8.909 55.63 7.473 1.152-.201 2.192.719 2.134 1.887-.545 11.046-2.846 58.157-2.846 66.077 0 3.85.976 9.423 2.09 14.537 14.489 4.892 29.589 8.45 45.149 10.563.201-.567.274-1.189.138-1.831-2.265-10.715-13.669-10.514-19.514-9.666-1.909.277-3.658-1.1-3.836-3.02-.83-8.923-2.549-31.444.37-39.471 1.821-5.009 4.15-13.224 6.036-20.237 2.045-7.604 6.358-14.418 12.402-19.465 19.59-16.359 24.135-38.064 25.157-48.693.44-4.583 1.198-9.126 2.26-13.606 3.721-15.698 5.469-37.078 6.225-49.721.355-5.935 5.326-10.534 11.271-10.434l23.186.392c1.35.03 2.179-1.469 1.436-2.597-.646-.982-.109-2.315 1.041-2.558 16.548-3.499 21.343-14.192 22.73-20.34.564-2.5-.745-5.043-3.095-6.062z" fill="#f78077"/><path d="m212.055 507.912c-2.265-10.715-13.669-10.514-19.514-9.666-1.909.277-3.658-1.1-3.836-3.02-.83-8.923-2.549-31.444.37-39.471 1.821-5.009 4.15-13.224 6.036-20.237 2.045-7.604 6.358-14.418 12.402-19.465 14.177-11.839 20.473-26.475 23.257-37.69-54.002-1.864-54.114-42.088-52.112-57.675.424-3.302-1.583-6.439-4.765-7.419-3.018-.93-5.519-2.147-7.598-3.561-11.284 8.291-32.358-1.496-98.347-1.496-30.124 0-48.693 8.376-59.924 20.496 8.879 34.217 24.976 65.521 46.556 92.211 8.742-12.658 10.406-26.085 10.711-31.4.077-1.35 1.261-2.369 2.609-2.249 10.76.958 21.705 8.027 41.86 21.936 18.496 12.765 47.409 8.909 55.63 7.473 1.152-.201 2.192.719 2.134 1.887-.545 11.046-2.846 58.157-2.846 66.077 0 3.85.976 9.423 2.09 14.537 14.489 4.892 29.589 8.45 45.149 10.563.202-.567.274-1.189.138-1.831z" fill="#ea6759"/><path d="m221.211 225.368c2.429-.208 4.669 1.286 5.378 3.55 2.942 9.397 9.952 35.132 7.562 60.497-2.999 31.82-42.98-34.924-42.98-41.521 0-6.194 9.517-20.769 30.04-22.526z" fill="#fc9592"/><path d="m297.724 262.434-6.05-2.622c-2.112 1.737-3.459 4.369-3.459 7.317 0 5.153 4.117 9.341 9.241 9.462 1.869-2.924 2.851-5.821 3.364-8.096.563-2.499-.746-5.042-3.096-6.061z" fill="#2a428c"/><path d="m184.219 312.013-17.171 9.914c-7.471 4.313-17.112 1.73-21.425-5.741l-4.713-8.163c-4.313-7.471-1.73-17.112 5.741-21.425l17.171-9.914c7.471-4.313 17.112-1.73 21.425 5.741l4.713 8.163c4.313 7.47 1.73 17.112-5.741 21.425z" fill="#f9ba8f"/><path d="m145.622 316.186c4.313 7.471 13.955 10.054 21.425 5.741l10.436-6.025c-.847-1.219-2.084-2.17-3.59-2.634-16.656-5.132-17.786-18.94-16.853-27.111.203-1.777-.285-3.482-1.258-4.833l-9.133 5.273c-7.471 4.313-10.054 13.955-5.741 21.425z" fill="#fcad6d"/><circle cx="246.275" cy="252.088" fill="#2a428c" r="7.725"/><path d="m316.477.494c-23.777 3.239-26.037 16.72-26.047 21.666-.002 1.037-.577 1.998-1.509 2.452-12.368 6.017-5.7 35.014-5.7 35.014 1.242.083 2.542.586 3.512 1.056.237-1.478.625-2.932 1.172-4.338.417-1.072.939-2.154 1.59-3.177 1.131-1.774 1.646-3.868 1.493-5.96-.445-6.049-.23-17.969 7.755-21.562 6.765-3.044 15.063-1.281 20.354.479 3.437 1.143 7.159 1.143 10.596 0 5.292-1.76 13.59-3.523 20.355-.479 7.962 3.583 8.198 15.445 7.759 21.51-.153 2.109.349 4.224 1.488 6.012.673 1.056 1.207 2.175 1.631 3.28.527 1.374.901 2.794 1.133 4.235 1.222-.592 2.969-1.237 4.463-1.026.183-6.341.768-13.176.768-13.176 7.045-34.51-25.212-49.475-50.813-45.986z" fill="#2a428c"/><path d="m332.24.622c-5.276-.783-10.652-.825-15.763-.128-23.777 3.239-26.037 16.72-26.047 21.666-.002 1.037-.577 1.998-1.509 2.452-12.368 6.017-5.7 35.014-5.7 35.014 1.242.083 2.542.586 3.512 1.055.237-1.478.625-2.932 1.173-4.338.417-1.072.938-2.154 1.59-3.177 1.131-1.774 1.646-3.868 1.493-5.96-.444-6.049-.23-17.969 7.755-21.562 6.765-3.044 15.063-1.281 20.354.479.756.251 1.528.438 2.306.579-.048-.081-.091-.164-.141-.244-10.368-16.594 10.97-25.833 10.977-25.836z" fill="#1c2e7a"/><path d="m369.193 60.479c-1.852-1.697-5.541-.837-7.136.202.349 2.176.369 4.402.068 6.6l-1.882 13.708c0 1.105-.035 2.189-.099 3.255 4.59 1.384 6.869-2.736 7.253-5.564.165-1.217.436-2.417.811-3.587 1.221-3.813 5.625-10.362.985-14.614z" fill="#fcad6d"/><path d="m279.596 60.479c1.852-1.697 5.541-.837 7.136.202-.349 2.176-.369 4.402-.067 6.6l1.882 13.708c0 1.105.035 2.189.099 3.255-4.59 1.384-6.869-2.736-7.253-5.564-.165-1.217-.436-2.417-.81-3.587-1.222-3.813-5.626-10.362-.987-14.614z" fill="#fd995b"/><path d="m361.12 56.371c-1.339-3.493-3.414-4.939-3.105-9.202 1.11-15.31-4.462-20.178-7.882-21.717-6.705-3.017-14.852-1.41-20.506.47-3.374 1.122-7.091 1.122-10.465 0-5.654-1.88-13.8-3.487-20.506-.47-3.426 1.541-9.005 6.42-7.878 21.769.307 4.176-1.737 5.622-3.069 9.045-1.339 3.441-1.772 7.258-1.253 11.04l1.881 13.683c0 22.602 13.674 35.66 19.554 40.225 9.645 7.491 23.292 7.545 33.007 0 5.879-4.565 19.554-17.624 19.552-40.197l1.882-13.708c.515-3.744.095-7.527-1.212-10.938z" fill="#f9ba8f"/><g><path d="m332.24 121.215c-5.88-4.565-19.554-17.623-19.554-40.225l-1.881-13.683c-.519-3.782-.086-7.6 1.253-11.04 1.332-3.423 3.376-4.869 3.069-9.045-.95-12.934 2.862-18.433 6.135-20.765-.709-.135-1.413-.305-2.1-.533-5.654-1.88-13.8-3.487-20.506-.47-3.426 1.541-9.005 6.42-7.878 21.769.307 4.176-1.737 5.622-3.069 9.045-1.339 3.441-1.772 7.258-1.253 11.04l1.881 13.683c0 22.602 13.674 35.66 19.554 40.225 8.285 6.434 19.518 7.365 28.68 2.722-1.507-.765-2.963-1.66-4.331-2.723z" fill="#fcad6d"/></g><path d="m390.872 233.734c5.778-.916 11.398-1.952 16.853-3.092-.633-15.261-6.573-26.761-11.775-33.996-2.489-3.462-7.949-1.709-7.949 2.556v37.875c0-1.67 1.224-3.082 2.871-3.343z" fill="#4fabf7"/></g></svg>